<mxfile host="65bd71144e">
    <diagram id="JI69uU-r_rz0Cma46QbT" name="第 1 页">
        <mxGraphModel dx="1442" dy="807" grid="1" gridSize="10" guides="1" tooltips="1" connect="1" arrows="1" fold="1" page="1" pageScale="1" pageWidth="827" pageHeight="1169" math="1" shadow="0">
            <root>
                <mxCell id="0"/>
                <mxCell id="1" parent="0"/>
                <mxCell id="21" style="edgeStyle=none;html=1;strokeColor=default;strokeWidth=1;fontFamily=SimSun;fontSize=19;startArrow=classic;startFill=1;dashed=1;dashPattern=8 8;" parent="1" source="2" target="8" edge="1">
                    <mxGeometry relative="1" as="geometry"/>
                </mxCell>
                <mxCell id="2" value="武汉站" style="ellipse;whiteSpace=wrap;html=1;fontSize=19;fontFamily=SimSun;" parent="1" vertex="1">
                    <mxGeometry x="150" y="180" width="80" height="40" as="geometry"/>
                </mxCell>
                <mxCell id="3" value="北京西站" style="ellipse;whiteSpace=wrap;html=1;fontSize=19;fontFamily=SimSun;strokeWidth=4;" parent="1" vertex="1">
                    <mxGeometry x="454" y="50" width="80" height="40" as="geometry"/>
                </mxCell>
                <mxCell id="27" style="edgeStyle=none;shape=flexArrow;html=1;dashed=1;strokeColor=default;strokeWidth=1;fontFamily=SimSun;fontSize=19;startArrow=classic;startFill=1;startSize=4.3032258064516125;endSize=4.3032258064516125;width=6.046511627906977;fillColor=default;" parent="1" source="4" target="12" edge="1">
                    <mxGeometry relative="1" as="geometry"/>
                </mxCell>
                <mxCell id="4" value="汉口站" style="ellipse;whiteSpace=wrap;html=1;fontSize=19;fontFamily=SimSun;strokeWidth=4;" parent="1" vertex="1">
                    <mxGeometry x="240" y="150" width="80" height="40" as="geometry"/>
                </mxCell>
                <mxCell id="17" style="edgeStyle=none;shape=flexArrow;html=1;strokeWidth=1;fontFamily=SimSun;fontSize=19;startArrow=classic;startFill=1;strokeColor=default;dashed=1;width=4.8076923076923075;endSize=4;startSize=4.31264367816092;startWidth=8.090185676392574;endWidth=11.308576480990276;fillColor=default;" parent="1" source="5" target="4" edge="1">
                    <mxGeometry relative="1" as="geometry"/>
                </mxCell>
                <mxCell id="5" value="重庆西站" style="ellipse;whiteSpace=wrap;html=1;fontSize=19;fontFamily=SimSun;strokeWidth=4;" parent="1" vertex="1">
                    <mxGeometry x="214" y="260" width="80" height="40" as="geometry"/>
                </mxCell>
                <mxCell id="14" style="edgeStyle=none;html=1;fontFamily=SimSun;fontSize=19;startArrow=classic;startFill=1;" parent="1" source="6" target="4" edge="1">
                    <mxGeometry relative="1" as="geometry"/>
                </mxCell>
                <mxCell id="6" value="长沙站" style="ellipse;whiteSpace=wrap;html=1;fontSize=19;fontFamily=SimSun;strokeWidth=4;" parent="1" vertex="1">
                    <mxGeometry x="320" y="260" width="80" height="40" as="geometry"/>
                </mxCell>
                <mxCell id="13" style="edgeStyle=none;html=1;fontFamily=SimSun;fontSize=19;startArrow=classic;startFill=1;" parent="1" source="7" target="6" edge="1">
                    <mxGeometry relative="1" as="geometry"/>
                </mxCell>
                <mxCell id="7" value="广州站" style="ellipse;whiteSpace=wrap;html=1;fontSize=19;fontFamily=SimSun;strokeWidth=4;" parent="1" vertex="1">
                    <mxGeometry x="360" y="320" width="80" height="40" as="geometry"/>
                </mxCell>
                <mxCell id="22" style="edgeStyle=none;html=1;dashed=1;dashPattern=8 8;strokeColor=default;strokeWidth=1;fontFamily=SimSun;fontSize=19;startArrow=classic;startFill=1;" parent="1" source="8" target="10" edge="1">
                    <mxGeometry relative="1" as="geometry"/>
                </mxCell>
                <mxCell id="8" value="合肥南站" style="ellipse;whiteSpace=wrap;html=1;fontSize=19;fontFamily=SimSun;" parent="1" vertex="1">
                    <mxGeometry x="374" y="200" width="80" height="40" as="geometry"/>
                </mxCell>
                <mxCell id="20" style="edgeStyle=none;shape=flexArrow;html=1;strokeColor=default;strokeWidth=1;fontFamily=SimSun;fontSize=19;startArrow=classic;startFill=1;endSize=4;startSize=4;startWidth=7.586206896551725;endWidth=7.586206896551725;width=4.930232558139535;fillColor=default;" parent="1" source="9" target="8" edge="1">
                    <mxGeometry relative="1" as="geometry"/>
                </mxCell>
                <mxCell id="23" style="edgeStyle=none;html=1;strokeColor=default;strokeWidth=1;fontFamily=SimSun;fontSize=19;startArrow=classic;startFill=1;" parent="1" source="9" target="10" edge="1">
                    <mxGeometry relative="1" as="geometry"/>
                </mxCell>
                <mxCell id="9" value="北京南站" style="ellipse;whiteSpace=wrap;html=1;fontSize=19;fontFamily=SimSun;" parent="1" vertex="1">
                    <mxGeometry x="500" y="90" width="80" height="40" as="geometry"/>
                </mxCell>
                <mxCell id="25" style="edgeStyle=none;html=1;strokeColor=default;strokeWidth=1;fontFamily=SimSun;fontSize=19;startArrow=classic;startFill=1;" parent="1" source="10" target="11" edge="1">
                    <mxGeometry relative="1" as="geometry"/>
                </mxCell>
                <mxCell id="10" value="南京南站" style="ellipse;whiteSpace=wrap;html=1;fontSize=19;fontFamily=SimSun;" parent="1" vertex="1">
                    <mxGeometry x="500" y="210" width="80" height="40" as="geometry"/>
                </mxCell>
                <mxCell id="11" value="上海虹桥站" style="ellipse;whiteSpace=wrap;html=1;fontSize=19;fontFamily=SimSun;" parent="1" vertex="1">
                    <mxGeometry x="500" y="300" width="100" height="40" as="geometry"/>
                </mxCell>
                <mxCell id="28" style="edgeStyle=none;shape=flexArrow;html=1;dashed=1;strokeColor=default;strokeWidth=1;fontFamily=SimSun;fontSize=19;startArrow=classic;startFill=1;startSize=4;endSize=4;fillColor=default;" parent="1" source="12" target="3" edge="1">
                    <mxGeometry relative="1" as="geometry"/>
                </mxCell>
                <mxCell id="12" value="郑州站" style="ellipse;whiteSpace=wrap;html=1;fontSize=19;fontFamily=SimSun;strokeWidth=4;" parent="1" vertex="1">
                    <mxGeometry x="294" y="70" width="80" height="40" as="geometry"/>
                </mxCell>
                <mxCell id="31" value="G1722,武汉\(\leftrightarrow\)南京西" style="text;html=1;align=center;verticalAlign=middle;resizable=0;points=[];autosize=1;strokeColor=none;fillColor=none;fontSize=15;fontFamily=SimSun;" parent="1" vertex="1">
                    <mxGeometry x="40" y="220" width="290" height="30" as="geometry"/>
                </mxCell>
                <mxCell id="32" value="G44,合肥南\(\leftrightarrow\)北京南" style="text;html=1;align=center;verticalAlign=middle;resizable=0;points=[];autosize=1;strokeColor=none;fillColor=none;fontSize=15;fontFamily=SimSun;" parent="1" vertex="1">
                    <mxGeometry x="269" y="130" width="290" height="30" as="geometry"/>
                </mxCell>
                <mxCell id="34" value="D3,北京西\(\leftrightarrow\)重庆西" style="text;html=1;align=center;verticalAlign=middle;resizable=0;points=[];autosize=1;strokeColor=none;fillColor=none;fontSize=15;fontFamily=SimSun;" parent="1" vertex="1">
                    <mxGeometry x="274" y="20" width="280" height="30" as="geometry"/>
                </mxCell>
                <mxCell id="35" value="Z13,汉口\(\leftrightarrow\)广州" style="text;html=1;align=center;verticalAlign=middle;resizable=0;points=[];autosize=1;strokeColor=none;fillColor=none;fontSize=15;fontFamily=SimSun;" parent="1" vertex="1">
                    <mxGeometry x="180" y="310" width="260" height="30" as="geometry"/>
                </mxCell>
                <mxCell id="36" value="G8,上海虹桥\(\leftrightarrow\)北京南" style="text;html=1;align=center;verticalAlign=middle;resizable=0;points=[];autosize=1;strokeColor=none;fillColor=none;fontSize=15;fontFamily=SimSun;" parent="1" vertex="1">
                    <mxGeometry x="330" y="265" width="290" height="30" as="geometry"/>
                </mxCell>
            </root>
        </mxGraphModel>
    </diagram>
</mxfile>